# xmcd
#
# Track frame offsets:
#	150
#	13043
#	27888
#	40011
#	55515
#	80106
#	94120
#	109385
#	122750
#	139250
#
# Disc length: 2065 seconds
#
# Revision: 0
# Processed by: cddbd v1.4PL0 Copyright (c) Steve Scherf et al.
# Submitted via: dBpowerAMP V4.0
#
DISCID=7f080f0a
DTITLE=Foster Martin Band - Ragtop Chevy
DYEAR=1996
DGENRE=Country
TTITLE0=Four By Four
TTITLE1=Never Met A LAdy (That I Didn't Like)
TTITLE2=Ragtop Chevy
TTITLE3=Until Now
TTITLE4=Rockin' Rodeo (The Bullrider)
TTITLE5=Just One Kiss
TTITLE6=Fallin' In Love
TTITLE7=I'm The One
TTITLE8=Thank You Lord For The Sun
TTITLE9=One Higher Than You
EXTD=
EXTT0=
EXTT1=
EXTT2=
EXTT3=
EXTT4=
EXTT5=
EXTT6=
EXTT7=
EXTT8=
EXTT9=
PLAYORDER=
